<svg xmlns="http://www.w3.org/2000/svg" viewBox="0 0 100 100">
  <rect width="100" height="100" rx="20" fill="#F9F9FB"/>
  <g transform="translate(0,0)" stroke="#1F1827" fill="#1F1827">
    <g stroke-width="4" stroke-linecap="round" fill="none">
      <path d="M50 18 84.6 38 84.6 62 50 82 15.4 62 15.4 38Z"/>
    </g>
    <g stroke-width="3" stroke-linecap="round" opacity="0.55">
      <line x1="50" y1="18" x2="50" y2="50"/>
      <line x1="84.6" y1="38" x2="50" y2="50"/>
      <line x1="84.6" y1="62" x2="50" y2="50"/>
      <line x1="50" y1="82" x2="50" y2="50"/>
      <line x1="15.4" y1="62" x2="50" y2="50"/>
      <line x1="15.4" y1="38" x2="50" y2="50"/>
    </g>
    <circle cx="50" cy="18" r="6.5"/>
    <circle cx="84.6" cy="38" r="6.5"/>
    <circle cx="84.6" cy="62" r="6.5"/>
    <circle cx="50" cy="82" r="6.5"/>
    <circle cx="15.4" cy="62" r="6.5"/>
    <circle cx="15.4" cy="38" r="6.5"/>
    <circle cx="50" cy="50" r="7.5"/>
  </g>
</svg>
